<mxfile host="app.diagrams.net" modified="2023-09-15T20:20:08.527Z" agent="Mozilla/5.0 (Windows NT 10.0; Win64; x64) AppleWebKit/537.36 (KHTML, like Gecko) Chrome/116.0.0.0 Safari/537.36" etag="0G9b6koEdQfGInDMom2n" version="21.7.2" type="github">
  <diagram name="Page-1" id="f2eOBEy3Netm770lYziy">
    <mxGraphModel dx="1386" dy="750" grid="1" gridSize="10" guides="1" tooltips="1" connect="1" arrows="1" fold="1" page="1" pageScale="1" pageWidth="850" pageHeight="1100" math="0" shadow="0">
      <root>
        <mxCell id="0" />
        <mxCell id="1" parent="0" />
        <mxCell id="aANOATS64AyCyQ3bgre--32" value="" style="endArrow=none;html=1;rounded=0;exitX=0.75;exitY=0.23;exitDx=0;exitDy=0;exitPerimeter=0;" edge="1" parent="1" source="aANOATS64AyCyQ3bgre--20">
          <mxGeometry width="50" height="50" relative="1" as="geometry">
            <mxPoint x="170" y="450" as="sourcePoint" />
            <mxPoint x="250" y="460" as="targetPoint" />
          </mxGeometry>
        </mxCell>
        <mxCell id="aANOATS64AyCyQ3bgre--31" value="" style="endArrow=none;html=1;rounded=0;exitX=0.465;exitY=0.4;exitDx=0;exitDy=0;exitPerimeter=0;" edge="1" parent="1" source="aANOATS64AyCyQ3bgre--23" target="aANOATS64AyCyQ3bgre--1">
          <mxGeometry width="50" height="50" relative="1" as="geometry">
            <mxPoint x="270" y="680" as="sourcePoint" />
            <mxPoint x="320" y="630" as="targetPoint" />
          </mxGeometry>
        </mxCell>
        <mxCell id="aANOATS64AyCyQ3bgre--30" value="" style="endArrow=none;html=1;rounded=0;" edge="1" parent="1" source="aANOATS64AyCyQ3bgre--22">
          <mxGeometry width="50" height="50" relative="1" as="geometry">
            <mxPoint x="220" y="536" as="sourcePoint" />
            <mxPoint x="270" y="486" as="targetPoint" />
          </mxGeometry>
        </mxCell>
        <mxCell id="aANOATS64AyCyQ3bgre--19" value="" style="shape=flexArrow;endArrow=classic;startArrow=classic;html=1;rounded=0;fillColor=#66B2FF;" edge="1" parent="1" source="aANOATS64AyCyQ3bgre--3" target="aANOATS64AyCyQ3bgre--10">
          <mxGeometry width="100" height="100" relative="1" as="geometry">
            <mxPoint x="370" y="340" as="sourcePoint" />
            <mxPoint x="470" y="240" as="targetPoint" />
          </mxGeometry>
        </mxCell>
        <mxCell id="aANOATS64AyCyQ3bgre--18" value="" style="shape=flexArrow;endArrow=classic;startArrow=classic;html=1;rounded=0;exitX=1;exitY=0.761;exitDx=0;exitDy=0;exitPerimeter=0;entryX=0;entryY=0.75;entryDx=0;entryDy=0;fillColor=#0a24eb;" edge="1" parent="1" source="aANOATS64AyCyQ3bgre--1" target="aANOATS64AyCyQ3bgre--2">
          <mxGeometry width="100" height="100" relative="1" as="geometry">
            <mxPoint x="370" y="340" as="sourcePoint" />
            <mxPoint x="480" y="470" as="targetPoint" />
          </mxGeometry>
        </mxCell>
        <mxCell id="aANOATS64AyCyQ3bgre--17" value="" style="shape=flexArrow;endArrow=classic;startArrow=classic;html=1;rounded=0;entryX=0.25;entryY=0;entryDx=0;entryDy=0;fillColor=#2f0fcc;" edge="1" parent="1" source="aANOATS64AyCyQ3bgre--3" target="aANOATS64AyCyQ3bgre--2">
          <mxGeometry width="100" height="100" relative="1" as="geometry">
            <mxPoint x="370" y="340" as="sourcePoint" />
            <mxPoint x="470" y="240" as="targetPoint" />
          </mxGeometry>
        </mxCell>
        <mxCell id="aANOATS64AyCyQ3bgre--16" value="" style="shape=flexArrow;endArrow=classic;startArrow=classic;html=1;rounded=0;entryX=0.78;entryY=0.043;entryDx=0;entryDy=0;entryPerimeter=0;fillColor=#1017ea;" edge="1" parent="1" source="aANOATS64AyCyQ3bgre--3" target="aANOATS64AyCyQ3bgre--1">
          <mxGeometry width="100" height="100" relative="1" as="geometry">
            <mxPoint x="370" y="340" as="sourcePoint" />
            <mxPoint x="470" y="240" as="targetPoint" />
          </mxGeometry>
        </mxCell>
        <mxCell id="aANOATS64AyCyQ3bgre--1" value="win&amp;nbsp; 10 pro&lt;br&gt;192.168.4.90" style="image;sketch=0;aspect=fixed;html=1;points=[];align=center;fontSize=12;image=img/lib/mscae/VirtualMachineWindows.svg;" vertex="1" parent="1">
          <mxGeometry x="260" y="440" width="50" height="46" as="geometry" />
        </mxCell>
        <mxCell id="aANOATS64AyCyQ3bgre--2" value="win server&lt;br&gt;192.168.4.99" style="image;aspect=fixed;perimeter=ellipsePerimeter;html=1;align=center;shadow=0;dashed=0;spacingTop=3;image=img/lib/active_directory/windows_server_2.svg;" vertex="1" parent="1">
          <mxGeometry x="490" y="436" width="40" height="50" as="geometry" />
        </mxCell>
        <mxCell id="aANOATS64AyCyQ3bgre--3" value="pfSense&lt;br&gt;192.168.4.1/24" style="image;html=1;image=img/lib/clip_art/networking/Firewall-page1_128x128.png" vertex="1" parent="1">
          <mxGeometry x="360" y="230" width="80" height="80" as="geometry" />
        </mxCell>
        <mxCell id="aANOATS64AyCyQ3bgre--10" value="Internet" style="image;aspect=fixed;perimeter=ellipsePerimeter;html=1;align=center;shadow=0;dashed=0;spacingTop=3;image=img/lib/active_directory/internet_globe.svg;" vertex="1" parent="1">
          <mxGeometry x="370" y="110" width="50" height="50" as="geometry" />
        </mxCell>
        <mxCell id="aANOATS64AyCyQ3bgre--20" value="R Morgan" style="sketch=0;pointerEvents=1;shadow=0;dashed=0;html=1;strokeColor=none;labelPosition=center;verticalLabelPosition=bottom;verticalAlign=top;align=center;fillColor=#505050;shape=mxgraph.mscae.intune.account_portal" vertex="1" parent="1">
          <mxGeometry x="110" y="390" width="43" height="50" as="geometry" />
        </mxCell>
        <mxCell id="aANOATS64AyCyQ3bgre--21" value="F Hopkins" style="sketch=0;pointerEvents=1;shadow=0;dashed=0;html=1;strokeColor=none;labelPosition=center;verticalLabelPosition=bottom;verticalAlign=top;align=center;fillColor=#505050;shape=mxgraph.mscae.intune.account_portal" vertex="1" parent="1">
          <mxGeometry x="100" y="525" width="43" height="50" as="geometry" />
        </mxCell>
        <mxCell id="aANOATS64AyCyQ3bgre--22" value="A Williams" style="sketch=0;pointerEvents=1;shadow=0;dashed=0;html=1;strokeColor=none;labelPosition=center;verticalLabelPosition=bottom;verticalAlign=top;align=center;fillColor=#505050;shape=mxgraph.mscae.intune.account_portal" vertex="1" parent="1">
          <mxGeometry x="153" y="620" width="43" height="50" as="geometry" />
        </mxCell>
        <mxCell id="aANOATS64AyCyQ3bgre--23" value="J Sanders" style="sketch=0;pointerEvents=1;shadow=0;dashed=0;html=1;strokeColor=none;labelPosition=center;verticalLabelPosition=bottom;verticalAlign=top;align=center;fillColor=#505050;shape=mxgraph.mscae.intune.account_portal" vertex="1" parent="1">
          <mxGeometry x="260" y="670" width="43" height="50" as="geometry" />
        </mxCell>
        <mxCell id="aANOATS64AyCyQ3bgre--28" value="" style="endArrow=none;html=1;rounded=0;exitX=0.94;exitY=0.65;exitDx=0;exitDy=0;exitPerimeter=0;" edge="1" parent="1" source="aANOATS64AyCyQ3bgre--21" target="aANOATS64AyCyQ3bgre--1">
          <mxGeometry width="50" height="50" relative="1" as="geometry">
            <mxPoint x="210" y="520" as="sourcePoint" />
            <mxPoint x="238.5" y="514.4182113678291" as="targetPoint" />
          </mxGeometry>
        </mxCell>
      </root>
    </mxGraphModel>
  </diagram>
</mxfile>
